<?xml version="1.0" encoding="UTF-8"?>
<svg id="Layer_1" xmlns="http://www.w3.org/2000/svg" version="1.1" viewBox="184.25 340.61 128.71 30.03">
  <defs>
    <style>
      .frontiers-bergen {
        fill: #07d9b2;
      }
    </style>
  </defs>
  <g>
    <path class="frontiers-bergen" d="M190.25,346.49c0-.5.39-.88.89-.88h4.91c2.08,0,3.46.71,4.35,1.55.78.81,1.31,2.12,1.31,3.25,0,1.27-.53,2.47-1.31,3.29-.14.14-.32.32-.53.46.78.32,1.45.74,1.98,1.27,1.06,1.06,1.56,2.3,1.56,3.71,0,1.27-.46,2.58-1.45,3.57-1.06,1.02-2.65,1.8-5.34,1.8h-5.48c-.5,0-.89-.39-.89-.88v-17.14ZM199.93,350.42c0-.71-.32-1.49-.81-1.98-.64-.64-1.63-1.06-3.07-1.06h-4.03v6.19h4.35c1.2-.07,2.23-.6,2.76-1.13.5-.46.81-1.24.81-2.01ZM192.01,362.75h4.59c2.05,0,3.29-.5,4.06-1.31.64-.64.95-1.45.95-2.3,0-.92-.35-1.73-1.06-2.44-.85-.85-2.3-1.38-3.85-1.38h-4.7v7.42Z"/>
    <path class="frontiers-bergen" d="M210.67,346.49c0-.46.35-.88.78-.88h9.9c.5,0,.88.39.88.88,0,.46-.39.88-.88.88h-8.91v6.15h7.39c.5,0,.88.39.88.88,0,.46-.39.89-.88.89h-7.39v7.46h8.98c.5,0,.88.39.88.88,0,.46-.39.88-.88.88h-9.86c-.46,0-.89-.42-.89-.88v-17.14Z"/>
    <path class="frontiers-bergen" d="M236.15,357.49h-4.74v6.15c0,.5-.39.88-.88.88-.46,0-.89-.42-.89-.88v-17.14c0-.5.39-.88.89-.88h5.2c4.13,0,6.75,2.51,6.75,5.94,0,2.55-1.38,4.81-4.28,5.62l5.05,5.9c.14.14.21.35.21.57,0,.42-.39.88-.88.88-.25,0-.5-.11-.67-.32l-5.76-6.72ZM231.41,355.72h4.31c3.25,0,4.98-1.84,4.98-4.17,0-2.51-2.05-4.17-4.98-4.17h-4.31v8.34Z"/>
    <path class="frontiers-bergen" d="M249.4,355.19c0-5.94,4.1-9.9,9.68-9.9,2.09,0,3.89.46,5.48,1.02.35.14.57.42.57.81,0,.46-.32.88-.88.88-.11,0-.21-.04-.32-.07-1.38-.53-2.97-.88-4.84-.88-4.59,0-7.92,3.25-7.92,8.13,0,4.38,2.86,7.88,7.81,7.88,2.3,0,4.03-.53,5.48-1.34v-5.13h-4.91c-.46,0-.89-.42-.89-.88,0-.49.42-.88.89-.88h5.41c.88,0,1.27.21,1.27.88v6.36c0,.39-.18.71-.46.88-1.73,1.1-3.85,1.87-6.79,1.87-6.08,0-9.58-4.28-9.58-9.65Z"/>
    <path class="frontiers-bergen" d="M274.31,346.49c0-.46.35-.88.78-.88h9.9c.5,0,.88.39.88.88,0,.46-.39.88-.88.88h-8.91v6.15h7.39c.5,0,.88.39.88.88,0,.46-.39.89-.88.89h-7.39v7.46h8.98c.5,0,.88.39.88.88,0,.46-.39.88-.88.88h-9.86c-.46,0-.89-.42-.89-.88v-17.14Z"/>
    <path class="frontiers-bergen" d="M295.06,348.83v14.81c0,.5-.39.88-.88.88-.46,0-.89-.42-.89-.88v-17.14c0-.5.42-.88.85-.88.53,0,.78.11.95.35,2.37,3.15,8.06,10.25,11.95,15.34v-14.81c0-.5.42-.88.88-.88.5,0,.88.39.88.88v17.14c0,.5-.39.88-.85.88-.49,0-.78-.11-.95-.35-3.25-4.35-8.77-11.24-11.95-15.34Z"/>
  </g>
</svg>
