<svg id="Layer_1" xmlns="http://www.w3.org/2000/svg" version="1.1" viewBox="65.56 281.03 380.43 49.68">
  <defs>
    <style>

      .cliff, .foothill {
        fill: #ff9200;
      }
      .dip {
        fill: #07d9b2;
      }
      .frontiers-bergen {
        fill: #07d9b2;
        stroke: #07d9b2;
        stroke-miterlimit: 10;
        stroke-width: .75px;
      }
    </style>
  </defs>
  <g>
    <path class="frontiers-bergen" d="M71.56,324.71v-37.1h24.12v5.46h-17.33v10.76h15.11v5.41h-15.11v15.48h-6.78Z"/>
    <path class="frontiers-bergen" d="M130.13,310.72c.63,3.98,2.65,8.69,6.57,8.69,1.59,0,3.07-.69,4.08-1.64l2.39,4.66c-2.12,1.85-4.29,2.86-7.42,2.86-8.75,0-11.45-9.96-11.82-14.21h-6.25v13.62h-6.78v-37.1h16.01c7.37,0,11.56,5.56,11.56,11.93,0,5.41-3.13,9.86-8.32,11.18ZM125.83,305.68c3.5,0,5.72-2.55,5.72-6.2s-2.28-6.25-5.72-6.25h-8.16v12.46h8.16Z"/>
    <path class="frontiers-bergen" d="M172.64,287.03c10.6,0,19.4,8.59,19.4,19.13s-8.8,19.14-19.4,19.14-19.4-8.59-19.4-19.14,8.8-19.13,19.4-19.13ZM172.64,319.15c6.84,0,12.51-5.51,12.51-12.99s-5.67-12.99-12.51-12.99-12.51,5.51-12.51,12.99,5.67,12.99,12.51,12.99Z"/>
    <path class="frontiers-bergen" d="M214.25,299.69v25.02h-6.78v-37.1h5.14l18.34,24.86v-24.86h6.78v37.1h-5.09l-18.39-25.02Z"/>
    <path class="frontiers-bergen" d="M281.62,287.61v5.46h-11.45v31.64h-6.78v-31.64h-11.34v-5.46h29.58Z"/>
    <path class="frontiers-bergen" d="M302.71,324.71h-6.78v-37.1h6.78v37.1Z"/>
    <path class="frontiers-bergen" d="M320.74,324.71v-37.1h24.12v5.46h-17.33v10.76h15.11v5.41h-15.11v10.07h17.33v5.41h-24.12Z"/>
    <path class="frontiers-bergen" d="M379.89,310.72c.64,3.98,2.65,8.69,6.57,8.69,1.59,0,3.07-.69,4.08-1.64l2.39,4.66c-2.12,1.85-4.29,2.86-7.42,2.86-8.75,0-11.45-9.96-11.82-14.21h-6.25v13.62h-6.78v-37.1h16.01c7.37,0,11.56,5.56,11.56,11.93,0,5.41-3.13,9.86-8.32,11.18ZM375.6,305.68c3.5,0,5.72-2.55,5.72-6.2s-2.28-6.25-5.72-6.25h-8.16v12.46h8.16Z"/>
    <path class="frontiers-bergen" d="M408.99,313.85c.8,3.18,3.66,5.46,7.69,5.46s6.68-1.75,6.68-4.72c0-2.17-1.59-3.76-4.88-4.93l-4.77-1.64c-7.79-2.6-9.12-7.32-9.12-10.44,0-6.52,5.51-10.55,12.3-10.55,6.2,0,10.6,3.23,12.3,8.48l-5.73,2.38c-1.27-3.76-3.87-4.82-6.57-4.82-3.02,0-5.51,1.48-5.51,4.4,0,1.27.37,3.18,4.4,4.61l4.77,1.75c7.21,2.28,9.49,6.84,9.54,10.49,0,7.16-6.1,10.97-13.25,10.97s-12.99-4.08-13.99-10.07l6.15-1.38Z"/>
  </g>
</svg>